<?xml version="1.0" standalone="no"?>
<!DOCTYPE svg PUBLIC "-//W3C//DTD SVG 20010904//EN"
 "http://www.w3.org/TR/2001/REC-SVG-20010904/DTD/svg10.dtd">
<svg version="1.0" xmlns="http://www.w3.org/2000/svg"
 width="925.000000pt" height="955.000000pt" viewBox="0 0 925.000000 955.000000"
 preserveAspectRatio="xMidYMid meet">

<g transform="translate(0.000000,955.000000) scale(0.100000,-0.100000)"
fill="#000000" stroke="none">
<path d="M4685 9463 c-46 -24 -66 -45 -86 -88 -18 -38 -19 -110 -19 -1677 0
-1304 -3 -1638 -12 -1637 -7 0 -130 94 -273 210 -353 284 -433 323 -670 323
-209 1 -324 -46 -555 -227 -80 -62 -327 -255 -550 -427 -223 -173 -718 -558
-1100 -855 -382 -297 -735 -572 -785 -610 -287 -221 -434 -342 -469 -383 -149
-180 -189 -498 -90 -709 64 -135 211 -180 347 -106 29 16 93 61 143 101 50 40
96 72 102 72 9 0 12 -355 14 -1312 3 -1307 3 -1313 24 -1378 107 -326 315
-536 624 -632 l75 -23 1947 -3 c2117 -3 2018 -5 2018 50 0 17 -107 130 -410
433 l-410 410 -1463 5 c-1361 5 -1464 6 -1494 22 -45 25 -89 83 -102 134 -8
30 -11 478 -11 1483 l0 1439 128 99 c70 55 318 247 552 428 234 181 614 476
845 655 584 454 552 430 586 430 24 0 155 -101 712 -547 2129 -1707 2789
-2233 2800 -2233 13 0 93 80 657 658 190 195 349 364 354 375 4 12 5 716 1
1587 -7 1688 -5 1624 -60 1790 -49 146 -164 306 -284 394 -25 19 -287 179
-581 357 -294 177 -584 353 -645 389 -60 37 -270 164 -465 282 -195 118 -416
252 -490 298 -74 45 -180 109 -235 142 -55 32 -174 104 -265 160 -91 55 -183
109 -205 119 -51 24 -158 25 -200 2z m1311 -1691 c126 -76 375 -227 554 -336
179 -109 404 -246 500 -304 96 -59 186 -118 199 -132 13 -14 34 -47 47 -75
l24 -50 0 -1496 c0 -823 -3 -1498 -6 -1501 -3 -4 -134 96 -292 220 -300 238
-1316 1048 -1389 1108 l-43 35 0 1280 c0 1409 -4 1329 62 1369 68 41 92 33
344 -118z"/>
<path d="M6255 6591 c-32 -10 -51 -24 -64 -48 -15 -29 -16 -556 0 -585 22 -42
64 -48 316 -48 265 0 305 6 328 50 20 39 22 540 2 580 -26 53 -57 59 -321 58
-132 0 -250 -3 -261 -7z"/>
<path d="M6206 5434 l-26 -27 0 -287 0 -288 31 -26 31 -26 273 0 274 0 28 24
28 24 0 292 0 292 -28 24 -28 24 -278 0 -278 0 -27 -26z"/>
<path d="M3819 3790 c-121 -9 -121 -9 -117 -394 l3 -308 28 -24 28 -24 315 0
316 0 29 29 29 29 0 320 0 319 -26 26 -26 26 -257 3 c-141 2 -286 1 -322 -2z"/>
<path d="M2733 3766 l-28 -24 0 -327 0 -327 28 -24 28 -24 315 0 c352 0 355 1
374 69 13 48 13 565 0 613 -19 68 -18 68 -372 68 l-317 0 -28 -24z"/>
<path d="M2751 2746 c-48 -27 -50 -40 -51 -363 0 -205 4 -310 11 -327 25 -53
51 -57 384 -54 l305 3 27 28 28 27 3 294 c4 328 -1 367 -48 391 -40 21 -622
22 -659 1z"/>
<path d="M3748 2744 c-45 -24 -50 -61 -46 -386 l3 -298 28 -27 27 -28 321 0
321 0 24 28 24 28 0 324 0 323 -31 26 -31 26 -306 0 c-251 -1 -312 -3 -334
-16z"/>
<path d="M8149 2143 c-13 -16 -12 -17 4 -4 16 13 21 21 13 21 -2 0 -10 -8 -17
-17z"/>
<path d="M8040 2026 c-19 -18 -44 -44 -55 -57 -10 -13 6 1 38 31 52 49 62 61
55 60 -2 0 -19 -15 -38 -34z"/>
<path d="M7838 1843 c6 -3 12 -9 12 -14 0 -6 -6 -7 -12 -3 -7 4 -10 3 -5 -1 4
-5 -3 -20 -15 -34 -13 -14 -4 -8 20 14 23 21 42 39 42 40 0 0 -12 1 -28 1 -15
1 -21 -1 -14 -3z"/>
<path d="M6580 1765 c-24 -25 -38 -45 -31 -45 6 0 9 -4 6 -10 -3 -5 1 -10 9
-10 9 0 22 14 31 30 9 17 13 30 9 30 -3 0 1 11 10 25 23 35 16 31 -34 -20z"/>
<path d="M7575 1757 c-24 -14 -39 -30 -39 -40 1 -11 -6 -17 -21 -17 -13 0 -25
-7 -28 -15 -4 -8 -15 -12 -27 -10 -16 3 -20 -1 -20 -20 0 -14 -7 -25 -17 -28
-17 -4 -17 -5 0 -6 27 -2 20 -21 -13 -35 -17 -7 -27 -15 -23 -19 3 -4 -2 -7
-11 -7 -14 0 -17 -6 -14 -24 5 -22 3 -23 -30 -14 -18 5 -36 7 -40 4 -3 -3 2
-6 12 -6 9 0 15 -4 11 -10 -3 -5 -12 -7 -20 -4 -8 4 -18 -1 -21 -10 -7 -19
-54 -22 -72 -4 -9 9 -12 8 -12 -6 0 -9 -4 -15 -9 -12 -5 3 -15 -2 -22 -11 -10
-12 -10 -14 -1 -9 7 4 12 2 12 -5 0 -8 6 -6 18 4 10 10 22 14 25 10 13 -12 7
-43 -7 -43 -8 0 -23 -3 -33 -6 -13 -4 -14 -3 -5 4 11 7 11 10 -3 15 -9 4 -13
3 -10 -3 7 -11 -33 -50 -52 -50 -7 0 -13 5 -13 12 0 6 3 8 7 5 7 -8 43 21 43
34 0 4 -16 7 -35 6 -19 -1 -35 -7 -35 -14 0 -13 -58 -15 -66 -1 -3 4 -16 8
-29 8 -13 0 -25 6 -28 13 -2 7 -8 8 -13 3 -5 -5 -4 -11 4 -13 17 -7 15 -23 -4
-23 -12 0 -15 12 -13 66 2 56 6 68 25 81 14 9 21 20 17 30 -5 13 -8 12 -14 -6
-17 -45 -62 -35 -52 13 4 20 4 20 -11 2 -8 -10 -13 -22 -11 -27 3 -4 0 -11 -6
-15 -7 -4 -9 -3 -5 4 3 6 2 13 -4 17 -9 5 -12 -5 -9 -32 0 -5 6 -7 13 -6 6 2
12 -6 12 -17 0 -11 -6 -20 -13 -20 -7 0 -13 7 -13 15 0 8 -6 15 -14 15 -8 0
-17 11 -20 25 -4 14 -11 25 -16 25 -14 0 -12 -17 3 -23 6 -3 2 -6 -10 -6 -14
-1 -23 5 -23 14 0 21 -20 19 -47 -7 -13 -12 -23 -17 -23 -11 0 6 7 14 16 17 9
4 14 13 10 21 -3 8 -1 15 3 15 5 0 17 3 27 7 12 4 15 3 10 -5 -4 -7 -3 -12 2
-12 5 0 12 9 15 20 5 18 -9 25 -44 22 -3 -1 -6 5 -6 13 0 8 4 12 9 9 4 -3 8 4
8 15 0 12 -4 21 -10 21 -5 0 -10 5 -10 11 0 5 5 7 10 4 6 -3 10 0 10 8 0 8 -7
17 -15 21 -10 3 -15 -1 -15 -12 0 -15 -2 -15 -11 -2 -8 11 -9 4 -6 -27 4 -31
1 -43 -8 -43 -18 0 -26 25 -12 39 8 8 8 11 -1 11 -7 0 -12 -4 -12 -9 0 -5 -9
-11 -21 -14 -16 -4 -20 -2 -16 12 2 11 -1 18 -9 18 -10 0 -14 -15 -14 -53 0
-47 -2 -53 -17 -47 -17 7 -17 6 0 -11 21 -22 23 -50 2 -42 -19 7 -19 -13 0
-38 19 -26 19 -32 -2 -32 -10 -1 -27 -5 -38 -9 -17 -8 -18 -7 -7 7 10 13 10
17 -3 22 -12 4 -14 0 -10 -23 4 -26 2 -28 -20 -23 -14 2 -25 10 -25 17 0 7 -8
12 -17 10 -10 -2 -20 -4 -22 -4 -2 -1 4 -10 14 -21 15 -17 16 -23 5 -33 -9 -8
-11 -9 -6 0 3 6 1 15 -6 19 -7 4 -10 4 -6 -1 4 -4 2 -15 -5 -23 -7 -10 -8 -13
-1 -9 7 4 12 -2 12 -16 0 -27 -26 -30 -54 -6 -16 13 -16 12 -5 -8 8 -16 8 -23
1 -23 -6 0 -8 -4 -5 -10 3 -5 4 -10 1 -10 -3 0 -10 10 -17 21 -9 17 -8 20 3
14 7 -3 4 1 -6 9 -24 20 -31 14 -17 -13 8 -14 8 -22 -1 -27 -7 -5 -8 -3 -3 6
6 9 4 11 -4 5 -9 -5 -10 -10 -2 -18 19 -19 12 -44 -16 -62 -16 -10 -31 -24
-36 -31 -4 -7 -15 -10 -23 -7 -13 5 -15 1 -9 -18 6 -21 5 -22 -6 -8 -17 20
-49 32 -49 19 0 -6 7 -10 15 -10 8 0 15 -9 15 -20 0 -15 -6 -19 -25 -18 -14 1
-25 6 -25 10 0 4 -11 8 -25 8 -14 0 -25 5 -25 11 0 6 -7 17 -15 25 -8 8 -12
21 -9 29 4 8 1 15 -5 15 -6 0 -11 -5 -11 -11 0 -5 -5 -7 -11 -3 -8 4 -8 0 0
-15 9 -15 9 -21 1 -21 -20 0 -44 32 -45 59 0 15 -6 25 -13 24 -7 -2 -12 1 -12
6 0 5 -13 3 -30 -5 -16 -9 -35 -12 -42 -8 -9 6 -9 3 1 -9 12 -15 11 -17 -5
-17 -11 0 -26 4 -34 10 -12 7 -11 12 5 32 26 30 37 38 47 32 4 -3 8 2 8 10 0
26 -18 27 -38 1 -11 -14 -25 -25 -31 -25 -6 0 -11 -4 -11 -9 0 -6 -9 -9 -20
-8 -19 1 -29 17 -11 17 13 0 23 34 16 52 -9 23 -49 15 -55 -11 -3 -12 -8 -22
-12 -22 -27 3 -33 -2 -34 -23 -2 -22 2 -24 32 -22 21 3 32 0 31 -8 -3 -18 -21
-26 -29 -13 -5 8 -8 6 -8 -5 0 -25 -26 -23 -33 2 -3 11 -12 20 -21 20 -23 0
-20 13 9 44 18 19 25 38 25 67 0 21 -4 39 -9 39 -14 0 -22 -29 -15 -57 5 -19
3 -24 -7 -21 -23 9 -48 -10 -44 -32 2 -12 0 -18 -6 -15 -5 4 -7 11 -4 16 4 5
-1 10 -9 10 -20 2 -26 4 -49 14 -10 4 -21 5 -24 1 -4 -3 1 -6 10 -6 9 0 17 -4
17 -8 0 -4 -25 -7 -55 -5 -51 2 -55 1 -55 -21 0 -30 10 -39 27 -24 11 9 16 9
23 -2 7 -11 13 -12 36 -1 23 10 26 10 16 -2 -7 -8 -8 -17 -4 -22 6 -7 -21 -1
-57 13 -9 3 -12 1 -7 -6 5 -8 1 -10 -10 -5 -13 5 -16 3 -11 -10 4 -11 1 -17
-8 -17 -8 0 -18 -8 -24 -17 -5 -10 -13 -14 -18 -10 -4 5 2 17 15 27 25 21 29
40 7 40 -19 0 -19 20 -1 46 9 12 11 26 6 33 -11 19 -30 4 -30 -25 0 -25 -24
-34 -33 -11 -3 6 -6 -7 -6 -31 -1 -37 -3 -42 -18 -34 -28 13 -47 9 -51 -12 -2
-10 0 -16 5 -13 5 4 10 1 10 -6 0 -8 -14 -13 -33 -13 -18 0 -31 3 -28 7 2 4
-7 6 -20 5 -13 0 -22 -5 -19 -9 3 -5 -3 -8 -13 -7 -34 4 -45 0 -38 -12 4 -6 3
-8 -3 -5 -13 8 -26 -20 -16 -35 3 -6 1 -8 -4 -5 -6 4 -14 0 -17 -9 -3 -8 -2
-13 2 -10 11 7 8 -31 -3 -41 -4 -5 -5 -2 -1 5 4 6 2 12 -4 12 -6 0 -10 -8 -9
-17 1 -10 1 -25 0 -33 -1 -13 -2 -13 -11 0 -5 8 -10 11 -10 6 0 -5 -8 -2 -17
5 -15 11 -14 10 1 -9 11 -12 16 -23 13 -23 -4 -1 -12 -2 -17 -3 -6 0 -14 -7
-18 -13 -6 -9 -25 5 -62 43 -30 31 -48 54 -40 52 24 -7 48 32 43 70 -4 26 -8
30 -19 21 -11 -9 -14 -8 -14 7 0 15 -2 16 -9 5 -6 -9 -11 -10 -15 -2 -11 17
-34 13 -55 -8 -19 -19 -20 -18 -62 25 -28 29 -38 44 -27 44 10 0 18 12 22 36
4 19 9 41 12 48 3 7 -2 13 -10 13 -8 0 -13 -4 -11 -8 3 -3 -9 -12 -25 -19 -17
-7 -30 -17 -30 -22 0 -5 -4 -6 -10 -3 -34 21 12 -30 177 -196 102 -104 190
-186 195 -183 5 3 7 0 6 -8 -2 -7 3 -12 10 -10 8 1 11 -1 8 -6 -7 -12 608
-624 619 -615 4 4 5 3 2 -3 -3 -6 15 -31 41 -56 42 -41 51 -45 90 -44 23 2 42
-1 42 -6 0 -4 8 -17 17 -28 15 -17 30 -20 93 -20 41 0 86 3 100 7 l25 7 -25 6
-24 6 22 22 c18 18 26 20 43 12 11 -6 17 -15 14 -20 -3 -4 5 -6 17 -2 28 7 70
49 413 411 149 157 269 291 269 298 -1 7 2 11 6 8 4 -2 59 48 123 113 147 150
177 184 171 193 -2 4 0 10 6 14 6 4 7 12 3 18 -4 7 0 6 10 -2 9 -7 18 -10 18
-5 1 5 2 14 4 19 1 6 3 15 4 20 1 6 5 4 9 -2 6 -9 20 -1 48 29 21 24 26 32 10
18 l-29 -25 13 25 c7 14 9 22 5 18 -4 -4 -16 2 -28 12 -11 11 -25 17 -30 13
-6 -4 -7 -1 -2 7 4 7 2 16 -6 22 -11 7 -9 8 6 6 16 -2 20 3 20 25 -1 27 9 35
20 18 6 -11 57 8 86 32 19 17 19 17 -2 38 -11 11 -18 23 -15 27 4 3 13 -3 21
-14 15 -19 15 -19 31 1 11 14 15 15 11 4 -4 -12 0 -15 19 -11 13 2 24 0 24 -6
0 -19 40 -8 63 17 12 14 15 20 6 13 -14 -10 -16 -7 -17 28 -2 46 7 54 41 37
25 -13 25 -15 9 -33 -9 -10 0 -3 21 16 38 34 71 80 48 66 -5 -4 -18 5 -27 19
-9 14 -22 25 -30 25 -8 0 -12 10 -11 26 3 36 -10 38 -58 11z m-68 -103 c-3 -3
-12 -4 -19 -1 -8 3 -5 6 6 6 11 1 17 -2 13 -5z m-50 -46 c-3 -8 -6 -5 -6 6 -1
11 2 17 5 13 3 -3 4 -12 1 -19z m-807 -17 c0 -13 -28 -22 -35 -11 -3 4 1 11 7
13 20 8 28 8 28 -2z m160 -55 c0 -11 -19 -15 -25 -6 -3 5 1 10 9 10 9 0 16 -2
16 -4z m60 -81 c-7 -9 -15 -13 -19 -10 -3 3 1 10 9 15 21 14 24 12 10 -5z
m-240 -35 c0 -5 11 -12 25 -16 26 -6 33 -28 14 -39 -16 -10 -56 3 -63 20 -3 8
-3 22 0 30 7 17 24 20 24 5z m285 -49 c-8 -14 -35 -14 -35 0 0 5 4 8 9 4 5 -3
13 0 16 6 4 5 9 8 12 5 3 -2 2 -9 -2 -15z m305 9 c0 -5 -7 -10 -15 -10 -8 0
-15 5 -15 10 0 6 7 10 15 10 8 0 15 -4 15 -10z m60 1 c0 -6 -4 -13 -10 -16 -5
-3 -10 1 -10 9 0 9 5 16 10 16 6 0 10 -4 10 -9z m-829 -25 c5 3 9 1 9 -5 0
-15 -18 -23 -25 -11 -4 6 -12 7 -18 3 -7 -4 -5 1 3 11 8 11 16 14 18 7 2 -6 8
-9 13 -5z m139 10 c0 -2 -7 -6 -15 -10 -8 -3 -15 -1 -15 4 0 6 7 10 15 10 8 0
15 -2 15 -4z m-905 -47 c-3 -4 -1 -10 5 -14 5 -3 10 -15 10 -26 0 -11 4 -17
10 -14 6 4 7 -1 4 -12 -5 -17 -5 -17 9 -1 12 16 51 18 65 4 2 -3 11 2 20 10
12 13 16 13 23 2 5 -7 13 -13 18 -13 10 0 51 -40 51 -50 0 -3 -7 -5 -16 -5 -8
0 -13 4 -10 9 3 5 -1 14 -8 20 -11 9 -17 7 -30 -10 -13 -20 -16 -20 -22 -6 -3
9 -11 14 -17 10 -5 -3 -7 -1 -4 4 5 7 -7 10 -33 9 -28 -1 -40 -6 -40 -16 -1
-8 -8 2 -17 22 -13 34 -33 43 -33 17 0 -6 4 -8 9 -5 5 3 11 -3 14 -14 3 -11 1
-23 -4 -26 -5 -3 -8 0 -7 8 2 7 -3 12 -9 11 -7 -2 -12 2 -10 8 1 6 -4 14 -12
17 -9 3 -11 0 -6 -8 5 -9 4 -11 -3 -6 -7 4 -12 2 -12 -3 0 -6 -5 -11 -11 -11
-8 0 -8 4 -1 13 6 6 10 17 9 22 -1 6 8 11 21 13 12 2 20 8 17 13 -4 5 2 6 12
2 16 -6 16 -5 4 10 -7 9 -10 17 -7 17 4 0 2 10 -4 23 -11 21 -10 21 4 3 9 -10
13 -22 11 -27z m1182 19 c-3 -8 -6 -5 -6 6 -1 11 2 17 5 13 3 -3 4 -12 1 -19z
m-1033 0 c-3 -5 -12 -7 -19 -4 -7 2 -18 -1 -24 -7 -9 -9 -11 -8 -6 4 3 9 17
17 30 17 14 0 22 -5 19 -10z m821 -18 c3 -6 -4 -10 -17 -10 -18 0 -20 2 -8 10
19 12 18 12 25 0z m629 -9 c3 -5 -5 -8 -19 -8 -14 0 -22 3 -19 8 3 5 11 9 19
9 8 0 16 -4 19 -9z m-1559 -10 c3 -5 2 -12 -3 -15 -5 -3 -9 1 -9 9 0 17 3 19
12 6z m178 -23 c31 -32 31 -33 9 -36 -12 -2 -29 4 -38 12 -9 9 -21 13 -27 9
-7 -4 -8 0 -4 11 4 10 7 22 7 27 0 18 22 8 53 -23z m97 18 c0 -3 -4 -8 -10
-11 -5 -3 -10 -1 -10 4 0 6 5 11 10 11 6 0 10 -2 10 -4z m11 -35 c-8 -5 -20
-7 -28 -4 -21 8 -15 13 15 13 20 0 23 -3 13 -9z m349 -11 c0 -11 -4 -20 -10
-20 -5 0 -10 2 -10 4 0 2 -3 11 -6 20 -4 11 -1 16 10 16 9 0 16 -8 16 -20z
m410 0 c0 -5 -4 -10 -10 -10 -5 0 -10 5 -10 10 0 6 5 10 10 10 6 0 10 -4 10
-10z m-1180 -63 c0 -15 -23 -1 -39 23 l-16 24 27 -19 c15 -11 28 -24 28 -28z
m176 28 c-23 -18 -36 -19 -36 -4 0 5 4 8 8 5 4 -2 14 -1 22 5 23 14 27 10 6
-6z m-246 -36 c0 -6 -4 -7 -10 -4 -5 3 -10 11 -10 16 0 6 5 7 10 4 6 -3 10
-11 10 -16z m250 11 c0 -5 -4 -10 -10 -10 -5 0 -10 5 -10 10 0 6 5 10 10 10 6
0 10 -4 10 -10z m-143 -6 c-3 -3 -12 -4 -19 -1 -8 3 -5 6 6 6 11 1 17 -2 13
-5z m517 -13 c10 -15 -22 -20 -34 -5 -10 11 -9 14 8 14 12 0 23 -4 26 -9z
m236 0 c0 -6 -4 -13 -10 -16 -5 -3 -10 1 -10 9 0 9 5 16 10 16 6 0 10 -4 10
-9z m-90 -11 c0 -5 -4 -10 -10 -10 -5 0 -10 5 -10 10 0 6 5 10 10 10 6 0 10
-4 10 -10z m900 -23 c0 -2 -16 -18 -34 -37 -31 -29 -35 -30 -33 -12 0 11 4 19
7 17 3 -2 17 5 30 16 25 19 30 21 30 16z m-1763 -29 c-3 -8 -6 -5 -6 6 -1 11
2 17 5 13 3 -3 4 -12 1 -19z m361 -10 c-2 -7 3 -13 10 -14 6 -1 15 -2 19 -3 4
0 2 -6 -4 -12 -6 -6 -10 -17 -9 -23 2 -6 1 -8 -1 -3 -3 4 -9 5 -13 2 -5 -3 -7
3 -5 15 2 11 -1 22 -6 25 -5 4 -7 11 -4 16 9 13 15 11 13 -3z m-18 -43 c0 -2
-6 -8 -13 -14 -10 -8 -14 -7 -14 2 0 8 6 14 14 14 7 0 13 -1 13 -2z m31 -42
c13 -16 12 -17 -3 -4 -17 13 -22 21 -14 21 2 0 10 -8 17 -17z m-536 -2 c3 -5
2 -12 -3 -15 -5 -3 -9 1 -9 9 0 17 3 19 12 6z m56 -21 c6 0 8 4 5 8 -3 5 1 9
8 9 7 0 13 -6 13 -13 0 -7 -4 -11 -9 -8 -4 3 -9 -7 -9 -23 -1 -17 -3 -21 -6
-11 -4 16 -7 17 -34 3 -16 -9 -29 -11 -29 -6 0 5 9 11 20 14 14 3 20 14 21 34
1 16 3 21 6 11 2 -10 9 -18 14 -18z m-36 -60 c-2 -4 4 -16 15 -28 14 -14 16
-22 7 -25 -8 -3 -6 -11 8 -28 11 -13 -4 -2 -33 26 -29 27 -52 52 -52 55 0 3
13 6 30 6 16 1 28 -2 25 -6z m1235 -490 c0 -5 -4 -10 -10 -10 -5 0 -10 5 -10
10 0 6 5 10 10 10 6 0 10 -4 10 -10z m-113 -116 c-3 -3 -12 -4 -19 -1 -8 3 -5
6 6 6 11 1 17 -2 13 -5z"/>
<path d="M5810 1240 c0 -5 7 -10 16 -10 8 0 12 5 9 10 -3 6 -10 10 -16 10 -5
0 -9 -4 -9 -10z"/>
<path d="M7769 1743 c-13 -16 -12 -17 4 -4 16 13 21 21 13 21 -2 0 -10 -8 -17
-17z"/>
<path d="M6754 1734 c3 -9 6 -18 6 -20 0 -2 5 -4 10 -4 6 0 10 9 10 20 0 12
-7 20 -16 20 -11 0 -14 -5 -10 -16z"/>
<path d="M6870 1735 c0 -8 7 -15 16 -15 14 0 14 3 4 15 -7 8 -14 15 -16 15 -2
0 -4 -7 -4 -15z"/>
<path d="M7480 1718 c0 -4 7 -8 15 -8 8 0 15 4 15 8 0 5 -7 9 -15 9 -8 0 -15
-4 -15 -9z"/>
<path d="M6767 1693 c-4 -3 -7 -11 -7 -17 0 -6 5 -5 12 2 6 6 9 14 7 17 -3 3
-9 2 -12 -2z"/>
<path d="M7380 1608 c0 -19 2 -20 10 -8 13 19 13 30 0 30 -5 0 -10 -10 -10
-22z"/>
<path d="M6384 1558 c-16 -18 -22 -27 -14 -20 17 14 34 16 25 2 -3 -5 -1 -10
5 -10 7 0 9 7 6 16 -4 9 -1 23 5 30 23 28 2 13 -27 -18z"/>
<path d="M5590 1570 c0 -5 5 -10 10 -10 6 0 10 5 10 10 0 6 -4 10 -10 10 -5 0
-10 -4 -10 -10z"/>
<path d="M5820 1567 c0 -5 -6 -7 -12 -4 -7 2 -23 -11 -35 -30 l-23 -34 23 7
c12 4 41 7 65 6 23 -1 42 3 42 8 0 6 -7 10 -16 10 -12 0 -15 7 -12 23 3 17 0
23 -14 23 -10 0 -18 -4 -18 -9z"/>
<path d="M5960 1576 c0 -2 8 -10 18 -17 15 -13 16 -12 3 4 -13 16 -21 21 -21
13z"/>
<path d="M5038 1563 c0 -4 -2 -12 -3 -18 -2 -5 -3 -20 -4 -31 -1 -18 -10 -24
-48 -31 -44 -8 -48 -11 -48 -36 1 -30 -5 -33 -24 -14 -10 10 -11 9 -6 -5 4 -9
22 -19 42 -23 36 -6 62 11 63 44 0 8 7 11 19 8 17 -4 18 0 14 34 -4 25 -2 39
6 39 14 0 15 27 1 35 -5 3 -11 3 -12 -2z"/>
<path d="M5900 1555 c0 -8 5 -15 10 -15 6 0 10 -7 10 -15 0 -9 6 -12 15 -9 8
4 15 1 15 -5 0 -6 6 -8 13 -5 8 3 14 12 14 20 0 8 -6 13 -14 10 -8 -3 -16 1
-20 10 -3 8 -12 13 -20 10 -8 -3 -11 -1 -8 4 3 6 1 10 -4 10 -6 0 -11 -7 -11
-15z"/>
<path d="M6015 1520 c10 -11 20 -20 23 -20 3 0 -3 9 -13 20 -10 11 -20 20 -23
20 -3 0 3 -9 13 -20z"/>
<path d="M5075 1520 c4 -6 11 -8 16 -5 14 9 11 15 -7 15 -8 0 -12 -5 -9 -10z"/>
<path d="M5890 1505 c0 -6 16 -25 35 -42 19 -18 35 -34 35 -35 0 -2 -18 -2
-40 0 -27 3 -40 9 -40 19 0 8 -7 13 -17 11 -28 -5 -25 -25 5 -39 17 -7 28 -18
25 -25 -2 -7 0 -15 6 -19 6 -3 11 -2 11 4 0 6 7 8 15 5 9 -4 18 1 21 11 5 12
9 13 14 5 5 -9 10 -6 15 9 5 16 0 27 -19 42 -14 11 -26 27 -26 35 0 9 -5 12
-11 8 -6 -3 -15 0 -20 7 -5 8 -9 9 -9 4z"/>
<path d="M5073 1463 c-3 -8 -3 -17 1 -20 3 -4 6 1 6 11 0 9 4 15 9 11 5 -3 12
-2 15 3 3 5 -2 9 -10 9 -9 0 -18 -7 -21 -14z"/>
<path d="M7047 1453 c4 -10 29 -12 53 -3 3 2 10 1 15 0 6 -1 7 2 3 6 -5 4 -23
8 -42 9 -24 1 -32 -3 -29 -12z"/>
<path d="M5588 1448 c-2 -6 -22 -11 -44 -11 l-40 0 15 -34 c14 -31 41 -46 41
-22 0 5 -4 8 -8 5 -5 -3 -9 1 -9 8 0 7 9 18 19 25 11 7 18 7 18 1 0 -5 -4 -10
-10 -10 -5 0 -10 -4 -10 -10 0 -14 43 -6 48 10 3 8 0 10 -8 5 -9 -6 -9 -3 -1
13 6 11 11 23 11 26 0 11 -18 6 -22 -6z"/>
<path d="M6087 1443 c6 -16 5 -16 -10 -5 -21 18 -37 7 -35 -22 2 -21 5 -22 25
-13 13 6 23 14 23 20 0 5 8 6 17 3 15 -6 15 -4 -2 14 -22 25 -26 25 -18 3z"/>
<path d="M6278 1449 c-15 -8 -15 -13 -5 -23 6 -8 15 -12 20 -9 4 2 7 -1 7 -6
0 -6 4 -11 9 -11 6 0 9 9 8 21 -1 14 -7 19 -20 15 -15 -4 -16 -2 -6 10 13 16
11 17 -13 3z"/>
<path d="M7425 1450 c3 -5 8 -10 11 -10 2 0 4 5 4 10 0 6 -5 10 -11 10 -5 0
-7 -4 -4 -10z"/>
<path d="M7450 1450 c0 -5 5 -10 10 -10 6 0 10 5 10 10 0 6 -4 10 -10 10 -5 0
-10 -4 -10 -10z"/>
<path d="M7351 1424 c0 -11 3 -14 6 -6 3 7 2 16 -1 19 -3 4 -6 -2 -5 -13z"/>
<path d="M5649 1411 c6 -10 7 -22 3 -27 -4 -5 -1 -4 6 2 13 11 6 44 -9 44 -6
0 -6 -8 0 -19z"/>
<path d="M6330 1406 c0 -8 -6 -16 -12 -18 -8 -3 -4 -9 10 -17 14 -7 22 -8 22
-1 0 5 -4 10 -9 10 -5 0 -7 9 -4 20 3 11 3 20 -1 20 -3 0 -6 -6 -6 -14z"/>
<path d="M5181 1378 c-1 -11 -9 -16 -28 -16 -44 1 -53 -1 -53 -13 0 -5 5 -7
12 -3 7 4 8 3 4 -5 -6 -9 -11 -9 -22 0 -15 12 -17 9 -28 -41 -3 -16 2 -34 15
-50 12 -14 18 -20 15 -14 -3 6 1 11 8 11 9 0 12 -7 8 -16 -3 -9 -1 -13 3 -8 7
6 10 18 14 62 1 6 5 3 10 -5 6 -8 8 -17 6 -20 -2 -3 16 -6 41 -6 24 0 44 2 44
3 0 2 -10 13 -21 24 -17 17 -19 23 -8 31 11 8 10 9 -3 4 -26 -8 -22 1 14 33
33 30 35 47 4 35 -13 -5 -14 -9 -6 -14 9 -5 9 -9 1 -14 -6 -4 -15 3 -20 16 -7
16 -10 18 -10 6z m-30 -27 c0 11 2 11 6 1 4 -10 8 -10 19 -1 17 14 19 -2 3
-18 -9 -9 -6 -19 9 -41 16 -21 17 -29 7 -29 -8 0 -14 3 -13 6 2 20 -3 31 -12
26 -5 -3 -6 -13 -3 -23 3 -9 3 -14 -1 -10 -4 3 -9 14 -11 25 -1 10 -8 17 -15
15 -6 -1 -9 2 -5 8 3 6 11 8 16 5 5 -4 9 -1 9 6 0 6 -8 9 -18 7 -12 -4 -18 1
-18 13 0 13 3 15 13 7 10 -8 13 -7 14 3z m-64 -33 c-3 -8 -6 -5 -6 6 -1 11 2
17 5 13 3 -3 4 -12 1 -19z"/>
<path d="M6175 1354 c9 -15 12 -23 6 -20 -7 5 -9 1 -5 -8 3 -9 12 -16 19 -16
8 0 16 -10 18 -22 2 -13 5 -6 6 17 1 35 -3 42 -30 58 l-32 18 18 -27z"/>
<path d="M5757 1343 c-4 -3 -7 -11 -7 -17 0 -6 5 -5 12 2 6 6 9 14 7 17 -3 3
-9 2 -12 -2z"/>
<path d="M5970 1330 c0 -5 4 -10 9 -10 6 0 13 5 16 10 3 6 -1 10 -9 10 -9 0
-16 -4 -16 -10z"/>
<path d="M5267 1293 c-10 -9 -9 -23 1 -23 5 0 9 7 9 15 0 17 -1 18 -10 8z"/>
<path d="M5356 1287 c3 -10 9 -15 12 -12 3 3 0 11 -7 18 -10 9 -11 8 -5 -6z"/>
<path d="M6165 1289 c-4 -6 -5 -12 -2 -15 2 -3 7 2 10 11 7 17 1 20 -8 4z"/>
<path d="M5317 1274 c3 -8 9 -12 13 -9 5 3 10 0 12 -7 2 -6 12 -12 21 -14 9
-1 15 2 11 7 -3 5 -10 7 -15 4 -5 -4 -9 0 -9 8 0 8 -9 17 -19 20 -14 3 -18 1
-14 -9z"/>
<path d="M6125 1261 c-3 -5 -2 -12 3 -15 5 -3 9 1 9 9 0 17 -3 19 -12 6z"/>
<path d="M5135 1230 c-8 -13 -16 -54 -9 -47 3 3 6 9 6 14 0 4 4 16 9 26 10 18
5 24 -6 7z"/>
<path d="M5160 1229 c0 -5 5 -8 12 -6 15 3 17 -25 3 -36 -6 -4 -1 -7 10 -5 11
2 25 12 32 23 14 24 17 47 3 25 -5 -8 -10 -10 -10 -4 0 6 -11 12 -25 12 -14 0
-25 -4 -25 -9z m50 -20 c0 -5 -4 -9 -8 -9 -5 0 -9 7 -9 15 0 8 4 12 9 9 4 -3
8 -9 8 -15z"/>
<path d="M5945 210 c3 -5 11 -10 16 -10 6 0 7 5 4 10 -3 6 -11 10 -16 10 -6 0
-7 -4 -4 -10z"/>
</g>
</svg>
